<svg xmlns="http://www.w3.org/2000/svg" xmlns:xlink="http://www.w3.org/1999/xlink" version="1.1" x="0px" y="0px" viewBox="0 0 100 100" enable-background="new 0 0 100 100" xml:space="preserve"><g><path fill="#eee" stroke="eee" d="M27.62,82.251c-0.194,0-0.378,0.086-0.502,0.234c-0.137,0.164-3.356,4.052-3.356,7.428c0,4.782,2.953,5.153,3.858,5.153   c0.905,0,3.857-0.371,3.857-5.153c0-3.376-3.218-7.264-3.355-7.428C27.998,82.337,27.814,82.251,27.62,82.251z"></path><path fill="#eee" stroke="#eee" d="M76.703,5.656c-4.207,0-6.254,2.352-6.835,3.163c-1.555,1.947-25.295,31.715-29.409,38.603   c-2.361,3.955-3.978,7.727-4.778,11.021H17.187c-1.614,0-2.941,1.331-3,2.944c-0.005,0.13-0.009,0.261-0.009,0.393   c0,8.165,5.276,13.441,13.442,13.441c7.57,0,12.648-4.54,13.35-11.708c0.074-0.262,0.127-0.532,0.127-0.817   c0-2.947,1.645-7.394,4.514-12.198c3.955-6.623,28.292-37.171,28.564-37.466c0.267-0.289,1.126-2.224,2.73-2.224   c1.45,0,2.345,0.971,2.345,2.255c0,2.198,0.552,3.349,2.209,3.349s3-1.343,3-3C84.459,9.135,80.979,5.656,76.703,5.656z"></path></g></svg>